<svg width="105" height="105" viewBox="0 0 105 105" fill="none" xmlns="http://www.w3.org/2000/svg">
    <g id="iconDribble">
        <path d="M22.9167 12.5C22.9184 13.8721 22.6483 15.2308 22.1218 16.4979C21.5953 17.7649 20.823 18.915 19.8495 19.8818C18.8839 20.8457 17.7378 21.6098 16.4767 22.1306C15.2157 22.6513 13.8643 22.9185 12.5 22.9167C6.74686 22.9167 2.08332 18.2531 2.08332 12.5C2.07968 9.82906 3.10565 7.25947 4.94791 5.32554C5.91996 4.29981 7.09109 3.48322 8.38964 2.92574C9.68819 2.36826 11.0868 2.08162 12.5 2.08335C13.8643 2.08159 15.2157 2.34871 16.4767 2.86945C17.7378 3.3902 18.8839 4.15435 19.8495 5.11825C20.823 6.08503 21.5953 7.23516 22.1218 8.50218C22.6483 9.7692 22.9184 11.128 22.9167 12.5V12.5Z" stroke="white" stroke-width="2" stroke-linecap="round" stroke-linejoin="round"/>
        <path d="M22.9167 12.5C21.3969 12.5 17.2042 11.9271 13.4515 13.5745C9.37498 15.3646 6.42342 18.1411 5.13696 19.8682" stroke="white" stroke-width="2" stroke-linecap="round" stroke-linejoin="round"/>
        <path d="M8.59375 2.84064C10.224 4.34532 13.7812 8.17657 15.1042 11.9792C16.4271 15.7823 16.9167 20.4583 17.2188 21.7891" stroke="white" stroke-width="2" stroke-linecap="round" stroke-linejoin="round"/>
        <path d="M2.16354 11.1979C4.13125 11.3167 9.34011 11.4235 12.6734 10C16.0068 8.57658 18.875 5.95835 19.8589 5.12762" stroke="white" stroke-width="2" stroke-linecap="round" stroke-linejoin="round"/>
        <path d="M2.86456 16.4651C3.78243 18.6869 5.43785 20.5246 7.55206 21.6688" stroke="white" stroke-width="2" stroke-linecap="round" stroke-linejoin="round"/>
        <path d="M2.08332 12.5C2.07968 9.82906 3.10565 7.25947 4.94791 5.32553" stroke="white" stroke-width="2" stroke-linecap="round" stroke-linejoin="round"/>
        <path d="M12.5 2.08335C11.0868 2.08162 9.68819 2.36826 8.38964 2.92574C7.09109 3.48322 5.91996 4.29981 4.94791 5.32554" stroke="white" stroke-width="2" stroke-linecap="round" stroke-linejoin="round"/>
        <path d="M16.6667 2.95001C17.8529 3.46904 18.9322 4.2043 19.8495 5.11824C20.823 6.08503 21.5954 7.23516 22.1218 8.50217C22.6483 9.76919 22.9184 11.128 22.9167 12.5C22.9167 13.7828 22.6849 15.011 22.2604 16.1458" stroke="white" stroke-width="2" stroke-linecap="round" stroke-linejoin="round"/>
        <path d="M12.5 22.9167C13.8644 22.9185 15.2157 22.6513 16.4767 22.1306C17.7378 21.6099 18.8839 20.8457 19.8495 19.8818" stroke="white" stroke-width="2" stroke-linecap="round" stroke-linejoin="round"/>
    </g>

    <g id="iconUpwork">
        <path d="M19.3359 13.7047C18.1883 13.7047 17.1102 13.2203 16.1336 12.4273L16.3695 11.3086L16.3773 11.2641C16.593 10.0758 17.2602 8.07812 19.3352 8.07812C20.0818 8.07833 20.7979 8.37504 21.3259 8.90303C21.8539 9.43101 22.1506 10.1471 22.1508 10.8937C22.1495 11.6398 21.8524 12.3548 21.3245 12.8819C20.7966 13.4091 20.0812 13.7053 19.3352 13.7055L19.3359 13.7047ZM19.3359 5.2289C16.6914 5.2289 14.6359 6.94609 13.8023 9.77421C12.5328 7.86562 11.5641 5.57109 11.0031 3.63828H8.15469V11.0477C8.15324 11.7509 7.87325 12.4249 7.37601 12.9221C6.87876 13.4193 6.20477 13.6993 5.50156 13.7008C4.79854 13.6987 4.12491 13.4185 3.6278 12.9214C3.13069 12.4243 2.8505 11.7507 2.84844 11.0477V3.63828H0V11.0477C0 14.0828 2.46953 16.5695 5.50156 16.5695C8.53672 16.5695 11.0031 14.0836 11.0031 11.0477V9.80624C11.5562 10.9578 12.2359 12.1297 13.0617 13.1633L11.3164 21.3625H14.2297L15.4953 15.4133C16.6023 16.1211 17.8758 16.5687 19.3367 16.5687C22.4617 16.5687 25.0008 14.0133 25.0008 10.8922C25.0008 7.76718 22.4617 5.22812 19.3367 5.22812L19.3359 5.2289Z" fill="white"/>
    </g>

    <g id="iconYoutube">
        <path d="M24.4793 6.77812C24.3377 6.27316 24.062 5.81598 23.6814 5.45521C23.29 5.08333 22.8103 4.81733 22.2876 4.68229C20.3314 4.16666 12.4939 4.16666 12.4939 4.16666C9.22651 4.12949 5.95995 4.29299 2.71262 4.65625C2.18991 4.80126 1.71113 5.07321 1.31887 5.44791C0.933457 5.81875 0.654291 6.27604 0.508457 6.77708C0.158138 8.66431 -0.0120717 10.5806 0.0001241 12.5C-0.0123759 14.4177 0.157416 16.3333 0.508457 18.2229C0.651166 18.7219 0.929291 19.1771 1.31575 19.5448C1.70221 19.9125 2.18346 20.1781 2.71262 20.3187C4.69492 20.8333 12.4939 20.8333 12.4939 20.8333C15.7654 20.8706 19.0361 20.7071 22.2876 20.3437C22.8103 20.2087 23.29 19.9427 23.6814 19.5708C24.0668 19.2031 24.3408 18.7458 24.4783 18.2479C24.8377 16.3614 25.0125 14.4444 25.0001 12.524C25.0272 10.5954 24.8526 8.66934 24.4793 6.77708V6.77812ZM10.0022 16.0667V8.93437L16.523 12.501L10.0022 16.0667Z" fill="white"/>
    </g>

    <g id="iconLinkedin">
        <path fill-rule="evenodd" clip-rule="evenodd" d="M1.04167 2.95624C1.04167 2.44846 1.24339 1.96148 1.60244 1.60243C1.96149 1.24337 2.44848 1.04166 2.95626 1.04166H22.0417C22.2933 1.04125 22.5426 1.09047 22.7752 1.18652C23.0077 1.28257 23.2191 1.42354 23.3971 1.60138C23.5752 1.77922 23.7164 1.99043 23.8127 2.22292C23.909 2.45541 23.9585 2.7046 23.9583 2.95624V22.0417C23.9586 22.2934 23.9093 22.5426 23.8131 22.7752C23.7169 23.0078 23.5759 23.2192 23.3979 23.3972C23.22 23.5752 23.0087 23.7164 22.7762 23.8127C22.5437 23.909 22.2944 23.9585 22.0427 23.9583H2.95626C2.70474 23.9583 2.45569 23.9088 2.22334 23.8125C1.99098 23.7162 1.77987 23.5751 1.60207 23.3972C1.42427 23.2193 1.28327 23.0081 1.18711 22.7757C1.09096 22.5433 1.04154 22.2942 1.04167 22.0427V2.95624ZM10.1125 9.77916H13.2156V11.3375C13.6635 10.4417 14.8094 9.63541 16.5313 9.63541C19.8323 9.63541 20.6146 11.4198 20.6146 14.6937V20.7583H17.274V15.4396C17.274 13.575 16.826 12.5229 15.6885 12.5229C14.1104 12.5229 13.4542 13.6573 13.4542 15.4396V20.7583H10.1125V9.77916ZM4.38334 20.6156H7.72501V9.63541H4.38334V20.6146V20.6156ZM8.20313 6.05416C8.20943 6.34028 8.15852 6.62477 8.05338 6.89095C7.94824 7.15712 7.791 7.39961 7.59087 7.60419C7.39075 7.80877 7.15178 7.97132 6.88798 8.08229C6.62418 8.19326 6.34088 8.25043 6.05469 8.25043C5.76851 8.25043 5.4852 8.19326 5.22141 8.08229C4.95761 7.97132 4.71864 7.80877 4.51851 7.60419C4.31839 7.39961 4.16114 7.15712 4.05601 6.89095C3.95087 6.62477 3.89996 6.34028 3.90626 6.05416C3.91862 5.49255 4.15041 4.95811 4.55197 4.56529C4.95353 4.17247 5.49295 3.95251 6.05469 3.95251C6.61644 3.95251 7.15585 4.17247 7.55742 4.56529C7.95898 4.95811 8.19076 5.49255 8.20313 6.05416Z" fill="white"/>
    </g>

    <g id="iconGithubSocialLink">
        <path fill-rule="evenodd" clip-rule="evenodd" d="M12.5 0C5.59375 0 0 5.59375 0 12.5C0 18.0312 3.57812 22.7031 8.54688 24.3594C9.17188 24.4688 9.40625 24.0938 9.40625 23.7656C9.40625 23.4688 9.39062 22.4844 9.39062 21.4375C6.25 22.0156 5.4375 20.6719 5.1875 19.9688C5.04688 19.6094 4.4375 18.5 3.90625 18.2031C3.46875 17.9688 2.84375 17.3906 3.89062 17.375C4.875 17.3594 5.57812 18.2812 5.8125 18.6562C6.9375 20.5469 8.73437 20.0156 9.45312 19.6875C9.5625 18.875 9.89062 18.3281 10.25 18.0156C7.46875 17.7031 4.5625 16.625 4.5625 11.8437C4.5625 10.4844 5.04688 9.35938 5.84375 8.48438C5.71875 8.17188 5.28125 6.89062 5.96875 5.17188C5.96875 5.17188 7.01562 4.84375 9.40625 6.45312C10.4062 6.17188 11.4687 6.03125 12.5312 6.03125C13.5937 6.03125 14.6562 6.17188 15.6562 6.45312C18.0469 4.82812 19.0938 5.17188 19.0938 5.17188C19.7812 6.89062 19.3438 8.17188 19.2188 8.48438C20.0156 9.35938 20.5 10.4687 20.5 11.8437C20.5 16.6406 17.5781 17.7031 14.7969 18.0156C15.25 18.4062 15.6406 19.1562 15.6406 20.3281C15.6406 22 15.625 23.3438 15.625 23.7656C15.625 24.0938 15.8594 24.4844 16.4844 24.3594C18.9658 23.5216 21.1221 21.9268 22.6496 19.7993C24.1772 17.6719 24.9993 15.119 25 12.5C25 5.59375 19.4062 0 12.5 0Z" fill="white"/>
    </g>

    <g id="iconBootstrap">
        <g clip-path="url(#clip0_2_5874)">
            <path d="M0 91.4612C0 98.9391 6.0617 105 13.5388 105H91.4607C98.9391 105 105 98.9383 105 91.4612V13.5393C105 6.06088 98.9383 0 91.4612 0H13.5393C6.06088 0 0 6.0617 0 13.5388V91.4607V91.4612Z" fill="#563D7C"/>
            <path d="M43.5414 46.4453V31.5759H56.6299C57.8767 31.5759 59.0785 31.6796 60.236 31.8876C61.3934 32.0951 62.4176 32.4659 63.308 33.0004C64.1981 33.5348 64.9105 34.2768 65.4449 35.2263C65.979 36.1762 66.2464 37.3931 66.2464 38.8767C66.2464 41.548 65.4449 43.4774 63.8421 44.6644C62.2396 45.8518 60.1917 46.4453 57.6983 46.4453H43.5414V46.4453ZM29.562 20.7129V84.2871H60.3697C63.219 84.2871 65.9941 83.9311 68.695 83.2187C71.3959 82.5062 73.7998 81.4082 75.9072 79.9243C78.0142 78.4403 79.6913 76.5257 80.9378 74.1813C82.1846 71.8364 82.8077 69.0613 82.8077 65.8559C82.8077 61.8786 81.843 58.4805 79.914 55.6611C77.9846 52.8413 75.0611 50.8676 71.1432 49.7396C73.9926 48.3746 76.1447 46.6233 77.5991 44.4864C79.0531 42.3495 79.7803 39.6785 79.7803 36.4727C79.7803 33.5048 79.2906 31.0119 78.3111 28.9935C77.3317 26.9756 75.9515 25.3579 74.1706 24.141C72.3901 22.924 70.2532 22.0484 67.7599 21.5143C65.2669 20.9799 62.5066 20.7129 59.4792 20.7129H29.562V20.7129ZM43.5414 73.4241V55.9724H58.7668C61.7941 55.9724 64.228 56.6696 66.0684 58.065C67.9083 59.4599 68.8287 61.7896 68.8287 65.0545C68.8287 66.7168 68.5465 68.0818 67.9826 69.1503C67.4186 70.2188 66.6619 71.0649 65.712 71.6879C64.7624 72.3114 63.664 72.7564 62.4176 73.0238C61.1707 73.2904 59.8652 73.4241 58.4998 73.4241H43.5414V73.4241Z" fill="white"/>
        </g>
        <defs>
            <clipPath id="clip0_2_5874">
                <rect width="105" height="105" fill="white"/>
            </clipPath>
        </defs>
    </g>

    <path id="iconGit" d="M103.02 47.8219L57.1758 1.98038C54.5372 -0.6598 50.2552 -0.6598 47.6134 1.98038L38.0937 11.5001L50.1699 23.5763C52.9762 22.6281 56.1943 23.2642 58.4313 25.5012C60.6789 27.7525 61.3106 30.9981 60.3393 33.8134L71.9775 45.452C74.7932 44.482 78.0421 45.1095 80.291 47.3621C83.434 50.5039 83.434 55.596 80.291 58.7399C77.1471 61.8841 72.055 61.8841 68.9095 58.7399C66.5454 56.3733 65.9613 52.9013 67.1582 49.9888L56.3046 39.1352L56.3034 67.6973C57.0902 68.0863 57.8088 68.6002 58.4313 69.2189C61.5743 72.3607 61.5743 77.4532 58.4313 80.5995C55.2874 83.7422 50.1929 83.7422 47.0535 80.5995C43.9105 77.4532 43.9105 72.3611 47.0535 69.2193C47.8067 68.4658 48.7019 67.869 49.6871 67.4635V38.6352C48.7004 38.2324 47.8048 37.6353 47.0535 36.8793C44.6722 34.5013 44.0996 31.0071 45.3198 28.0831L33.4154 16.1775L1.98105 47.6099C-0.660352 50.2525 -0.660352 54.5349 1.98105 57.1755L47.8259 103.018C50.4652 105.658 54.7464 105.658 57.3891 103.018L103.019 57.3884C105.66 54.747 105.66 50.4621 103.019 47.8219" fill="#DE4C36"/>

    <path id="iconGithubSkills" fill-rule="evenodd" clip-rule="evenodd"
          d="M52.5 0C23.4937 0 0 23.4937 0 52.5C0 75.7312 15.0281 95.3531 35.8969 102.309C38.5219 102.769 39.5062 101.194 39.5062 99.8156C39.5062 98.5688 39.4406 94.4344 39.4406 90.0375C26.25 92.4656 22.8375 86.8219 21.7875 83.8688C21.1969 82.3594 18.6375 77.7 16.4062 76.4531C14.5688 75.4688 11.9437 73.0406 16.3406 72.975C20.475 72.9094 23.4281 76.7812 24.4125 78.3562C29.1375 86.2969 36.6844 84.0656 39.7031 82.6875C40.1625 79.275 41.5406 76.9781 43.05 75.6656C31.3688 74.3531 19.1625 69.825 19.1625 49.7437C19.1625 44.0344 21.1969 39.3094 24.5438 35.6344C24.0188 34.3219 22.1812 28.9406 25.0688 21.7219C25.0688 21.7219 29.4656 20.3438 39.5062 27.1031C43.7062 25.9219 48.1687 25.3312 52.6312 25.3312C57.0937 25.3312 61.5562 25.9219 65.7562 27.1031C75.7969 20.2781 80.1937 21.7219 80.1937 21.7219C83.0812 28.9406 81.2438 34.3219 80.7188 35.6344C84.0656 39.3094 86.1 43.9687 86.1 49.7437C86.1 69.8906 73.8281 74.3531 62.1469 75.6656C64.05 77.3063 65.6906 80.4562 65.6906 85.3781C65.6906 92.4 65.625 98.0438 65.625 99.8156C65.625 101.194 66.6094 102.834 69.2344 102.309C79.6564 98.7907 88.7127 92.0924 95.1285 83.1572C101.544 74.2221 104.997 63.5 105 52.5C105 23.4937 81.5063 0 52.5 0Z" fill="#FFFEFE"/>

    <path id="iconGreensock" d="M58.365 119.745C56.8012 119.471 55.1812 118.729 54.2625 117.908C53.6388 117.253 53.2829 116.389 53.265 115.485C53.265 114.566 53.7337 113.276 54.4762 111.99C54.9262 111.266 55.2787 110.486 55.53 109.665C55.6875 109.099 56.0175 108.18 56.2725 107.595L56.7225 106.523L56.8387 99.3563C56.8987 95.3925 57.015 91.7213 57.1125 91.1513C57.3675 89.5088 57.795 87.9075 58.3612 86.3475L58.7925 85.3125L58.1662 84.9413C57.6 84.5888 57.1312 84.1013 55.275 81.8925C52.9912 79.1963 49.9837 77.7113 45.7237 77.205C44.3362 77.07 42.93 76.9688 41.5237 76.9125C35.2725 76.62 31.6987 75.3113 28.4775 72.1463C26.0737 69.7838 24.825 67.0275 24.3187 62.9663C23.6362 57.4763 22.875 54.6638 21.4687 52.38C21.1221 51.816 20.7228 51.2861 20.2762 50.7975L19.71 50.2313L18.4612 51.0338C17.7787 51.4838 16.8187 52.05 16.35 52.305C14.7862 53.1638 13.3012 54.12 11.8762 55.155C8.38123 57.6938 4.57123 60.8775 2.48248 62.9663C1.54498 63.9038 1.05748 64.3125 0.839976 64.275C-0.585024 64.0613 0.506226 57.8888 2.83123 53.2388C5.80123 47.2425 10.8 41.715 16.5825 37.9838C21.33 34.9163 29.0062 30.6975 32.5575 29.2125C38.865 26.5763 47.0287 23.7225 52.6162 22.2C53.79 21.8663 54.51 21.5738 54.9975 21.2438C56.0925 20.4825 57.165 20.1113 58.395 20.0925C59.43 20.0738 59.5275 20.055 60.525 19.3875C61.6987 18.6263 62.0475 18.585 63.2212 18.9975L63.9825 19.2713L64.92 18.6263L65.8575 18L67.2037 18.0188C68.2387 18.0375 68.7075 18 69.1575 17.805C69.7237 17.55 69.7425 17.5125 69.9 16.575C70.2525 14.5425 70.29 13.5263 70.0762 12.2963C69.8025 10.6763 69.765 4.3875 70.0387 3.15375C70.3312 1.82625 70.5262 1.5525 71.5237 1.065C73.0087 0.341252 74.1225 0.127502 76.68 0.127502C79.8037 0.127502 81.3862 0.558753 82.56 1.69125C83.6137 2.7075 83.79 5.08875 83.2425 10.6763C82.9087 13.8975 82.8712 14.7975 82.9687 16.905C83.0062 18.2513 83.1037 19.5225 83.145 19.6988C83.2237 20.0325 83.3025 20.0513 84.435 20.07C85.5487 20.0888 85.7437 20.1488 86.7975 20.6963C87.8137 21.225 88.575 21.87 88.7325 22.3388C88.7512 22.4363 88.9275 22.4363 89.2387 22.3388C89.8425 22.1625 90.3712 22.3575 90.8025 22.8863C91.0575 23.22 91.2112 23.2763 91.8 23.2763C92.6025 23.2763 92.895 23.4713 93.5587 24.45C93.8692 24.8893 94.2948 25.2344 94.7887 25.4475C95.8837 25.995 97.3687 27.5175 97.935 28.7288C98.8125 30.525 98.9887 32.6138 98.4412 34.4888C98.2462 35.1938 98.2462 35.2125 98.655 35.895C99.5137 37.3613 99.8287 39.1575 99.4762 40.68L99.2812 41.58L99.8662 42.165C102.776 45.075 102.345 49.8225 98.7937 54.06C98.3968 54.544 98.0617 55.0756 97.7962 55.6425C97.1137 57.4575 96.33 58.7288 95.3175 59.7825L94.2825 60.8363H93.2287C92.175 60.8363 90.69 60.4838 89.79 60.015C89.4187 59.82 89.4 59.82 89.4787 60.0525C89.715 60.9113 90.3 64.4063 90.495 66.3413C90.8062 69.3113 90.7087 73.6275 90.3 75.4838C90.0013 76.8586 89.5008 78.1816 88.815 79.41C88.425 80.0363 88.4062 80.1713 88.4812 80.9325C88.5975 82.005 88.3462 83.805 87.915 84.9938C87.3862 86.3813 87.1912 87.0263 87.075 87.7275C86.9775 88.3313 86.9775 88.3313 87.4087 88.3313C87.975 88.3313 88.2862 88.665 88.2862 89.3288C88.2862 89.6213 88.0312 91.2038 87.72 92.8238C86.8612 97.3763 86.8012 97.8825 86.8012 102.296C86.7825 106.849 86.7825 106.808 87.8175 107.49L90.1425 108.994C92.1427 110.321 94.2847 111.422 96.5287 112.275C99.7912 113.565 100.241 113.895 100.241 114.99C100.241 115.478 100.144 115.654 99.735 116.044C98.4862 117.255 96.0225 117.529 91.0612 117C88.4832 116.758 85.8955 116.635 83.3062 116.629C76.47 116.531 75.4725 116.295 74.5762 114.596C74.07 113.621 74.1675 112.35 74.8687 110.261C75.18 109.343 75.4537 108.405 75.69 107.449C76.1587 105.184 75.8475 102.488 74.7525 99.4425L73.815 96.8438C72.8962 94.2075 72.39 89.3813 72.9375 88.29C73.035 88.0763 73.2112 88.035 73.68 88.0538L74.265 88.1138L74.7525 87.0975C75.1237 86.295 75.5325 85.77 76.6462 84.6563L78.0712 83.2313L77.9925 82.3125C77.9325 81.435 76.7812 77.175 76.6237 77.1938C76.5637 77.1938 76.2525 77.625 75.9 78.1688C75.0412 79.4588 73.1475 81.45 72.0712 82.1738C71.6025 82.485 71.2125 82.8563 71.2125 82.9763C71.1937 83.505 70.7437 84.54 70.1962 85.26C69.6675 85.965 69.63 86.0813 69.7087 86.7038C69.8437 87.6225 69.5512 90.57 69.2025 92.115C68.8864 93.2622 68.4541 94.3742 67.9125 95.4338C66.5662 98.2275 65.55 100.725 65.295 101.88C65.1108 102.992 64.9931 104.114 64.9425 105.24C64.8825 106.568 64.7475 107.858 64.65 108.131C64.515 108.503 64.515 108.795 64.6312 109.361C64.7287 109.77 64.7887 110.689 64.7662 111.413C64.7475 112.41 64.8262 113.055 65.1187 114.225C65.625 116.216 65.7225 117.469 65.49 118.211C65.3325 118.68 65.1787 118.856 64.65 119.111C63.4762 119.715 60.1575 120.049 58.3612 119.738L58.365 119.745ZM63.1087 118.144C63.7912 117.949 64.38 117.364 64.38 116.835C64.38 116.599 64.185 115.916 63.9487 115.313C63.48 114.161 62.6775 111.113 62.6775 110.606C62.6775 110.351 62.6962 110.333 63.0862 110.546L63.5175 110.783V110.235C63.4549 109.73 63.3431 109.233 63.1837 108.75C62.8125 107.636 62.775 107.618 60.4087 107.479L58.8075 107.4L58.2225 107.966C57.9008 108.297 57.6189 108.665 57.3825 109.061C57.1275 109.568 57.03 110.333 57.1875 110.505C57.225 110.565 57.6187 110.505 58.0462 110.408C58.3 110.332 58.5618 110.287 58.8262 110.273C58.8262 110.291 58.395 110.644 57.8512 111.015C55.5075 112.774 54.6862 113.846 54.6862 115.215C54.6862 116.64 56.0325 117.754 58.1437 118.088C59.5875 118.301 62.4 118.361 63.105 118.148L63.1087 118.144ZM94.8862 115.819C95.4712 115.114 95.3925 114.394 94.65 113.573C94.2187 113.141 93.7312 112.77 93.1837 112.478C92.6362 112.185 92.0887 111.851 91.5412 111.503C90.551 110.861 89.5338 110.261 88.4925 109.706C87.5925 109.219 86.715 108.709 85.8562 108.165L85.5037 107.891V102.521C85.5037 97.23 85.485 97.1513 85.2112 97.23C83.8425 97.6013 81.5775 97.7775 78.7087 97.7175L75.6037 97.68L76.0537 98.775C76.8937 100.845 77.325 103.62 77.325 106.804C77.325 107.996 77.2462 108.424 76.9537 109.264C76.7962 109.673 76.6612 110.085 76.5225 110.494C76.4625 110.67 76.68 110.805 77.4787 111.041C78.0637 111.218 78.9225 111.394 79.4137 111.45L80.3137 111.548L80.2162 112.448C80.1187 113.464 80.235 114.536 80.49 114.87C80.6475 115.065 81.2325 115.144 83.9475 115.26C85.9987 115.358 88.2262 115.571 89.9812 115.826C91.5037 116.063 93.1462 116.258 93.6337 116.258C94.455 116.276 94.5337 116.239 94.8825 115.826L94.8862 115.819ZM63.6187 106.68C63.6975 106.62 63.8137 105.566 63.855 104.318C64.0125 100.823 64.1475 100.313 65.9062 96.3675C67.35 93.1463 68.115 90.1388 68.055 88.0088L68.0175 86.7375L67.47 87.2663C66.3375 88.3988 67.1175 86.6213 68.4675 85.0388C69.4837 83.8275 69.8362 83.1638 69.99 82.0913C70.0687 81.66 70.2262 81.4463 70.89 80.94C73.3735 79.0639 75.2871 76.5349 76.4175 73.635C76.6912 72.93 77.3925 70.53 77.9812 68.3025C79.0762 64.1813 79.6612 62.4038 80.19 61.6425C80.385 61.35 80.4637 61.29 80.4262 61.485C80.143 62.5324 79.9214 63.5955 79.7625 64.6688C79.605 65.625 79.3125 67.5 79.1175 68.8088C78.7462 71.4863 78.3562 73.2038 77.8275 74.5313L77.475 75.4313L78.4125 77.8538C79.3875 80.3325 79.8375 82.1325 79.9162 83.8688L79.9762 84.8438L79.215 85.0013C78.2102 85.1791 77.3136 85.7396 76.7137 86.565C76.05 87.5213 75.6787 88.305 75.855 88.4775C75.9337 88.5563 76.89 88.7325 77.985 88.8675C79.6837 89.0625 80.3287 89.0625 82.575 88.9275C83.55 88.89 84.51 88.7925 85.4662 88.6538C85.68 88.575 85.8975 88.1475 86.2462 87.0338C87.0487 84.4763 87.2025 83.5763 87.105 81.78L87.0262 80.1975L87.435 79.6688C88.3912 78.4575 89.1337 76.2713 89.445 73.71C89.8162 70.5863 89.1337 64.0425 87.8625 58.4175C87.2587 55.74 87.0037 54.1388 87.0037 52.9688V51.9338L86.0475 52.0313C82.6087 52.4025 78.45 52.305 75.9112 51.7763C74.5237 51.5025 71.0287 50.4675 70.2675 50.1338L69.6637 49.86L69.585 50.5425C69.525 50.9138 69.4687 51.285 69.39 51.675C69.2737 52.0838 69.3112 52.1813 70.035 52.8863C70.935 53.805 71.2087 54.2738 71.2087 54.8963C71.2087 55.2863 70.995 55.6013 69.9 56.7338C69.1149 57.5715 68.2438 58.3244 67.3012 58.98L66.03 59.8388L65.4825 61.7325C63.5287 68.6663 63.1575 74.9738 64.4475 79.485L64.7587 80.6175L64.1325 81.3975C61.7887 84.345 60.4012 86.5913 60.1875 87.8438C60.0625 88.4605 59.9187 89.0733 59.7562 89.6813C59.25 91.6163 58.8562 94.4475 58.6837 97.515C58.5635 100.083 58.3948 102.648 58.1775 105.21L58.08 105.971L59.055 106.264C59.6025 106.44 60.4237 106.635 60.8925 106.714C61.77 106.849 63.3937 106.811 63.645 106.676L63.6187 106.68ZM82.5825 95.9363C84.105 95.8388 85.4925 95.6025 85.7662 95.37C85.8825 95.2913 86.0212 94.8825 86.0587 94.47L86.1562 93.7275L84.945 94.0013C83.9887 94.1963 83.0325 94.3125 82.0725 94.3913C79.7662 94.4888 77.445 94.4288 75.1575 94.1963C74.3962 94.08 74.3962 94.08 74.6287 95.0738C74.8237 95.8163 74.865 95.8538 76.8562 95.9925C78.1837 96.1088 80.04 96.09 82.5787 95.9325L82.5825 95.9363ZM81.3112 92.5388C83.3025 92.3625 85.785 91.935 86.2725 91.68C86.43 91.6013 86.565 91.3088 86.625 90.975L86.8012 89.94L86.8987 89.4525L86.4112 89.55C84.2437 90 82.6012 90.135 79.32 90.135C76.1175 90.135 75.7462 90.1163 74.9062 89.8238C74.5834 89.6877 74.2397 89.6078 73.89 89.5875C73.755 89.6663 73.7325 90.78 73.8525 91.56C73.9312 92.0288 74.01 92.1075 74.4787 92.2425C75.9637 92.6513 78.465 92.7488 81.315 92.5163L81.3112 92.5388ZM45.0637 74.9213C50.0625 73.4775 56.6062 69.2363 61.9575 63.9263C63.6975 62.1863 63.9112 61.9538 64.1437 61.1738L64.455 60.1763C64.4925 60.0975 64.1812 59.9625 63.7725 59.865C62.7 59.61 61.8787 58.9875 61.8787 58.4213C61.8787 58.0875 61.6837 57.7575 61.1175 57.15C60.1987 56.115 59.9662 55.665 59.8687 54.6713L59.79 53.8688L58.695 53.0888C58.0687 52.6388 55.8825 51.4275 53.5575 50.2575C51.7872 49.3939 50.0544 48.4555 48.3637 47.445C46.41 46.1363 45.1012 44.5725 44.3587 42.72C44.2237 42.3488 44.0475 42.0375 43.9875 42.0375C43.83 42.0375 39.435 46.275 37.56 48.2663C32.9325 53.1488 29.7487 57.3863 27.735 61.3125C27.2287 62.2875 26.6812 63.4425 26.5237 63.87L26.2312 64.65L26.5837 65.9588C26.7975 66.6638 27.2475 67.815 27.6 68.4975C28.83 70.92 30.2962 72.3825 32.7187 73.575C35.3175 74.865 37.62 75.315 41.4675 75.255C43.5375 75.2363 44.145 75.1763 45.06 74.9025L45.0637 74.9213ZM5.60998 57.7913C8.89123 54.8813 13.4212 51.6975 18.9712 48.3975C22.605 46.23 36.6487 39.1988 43.1137 36.3263C44.2875 35.7975 45.3412 35.31 45.4575 35.2538C45.5737 35.175 45.9075 34.335 46.2187 33.3975C47.5875 29.0625 48.27 28.2038 50.7487 27.6375C51.06 27.5588 51.1387 27.4613 51.1387 27.15C51.1387 26.5838 51.5287 25.275 51.8625 24.69C52.1175 24.24 52.1175 24.2213 51.9 24.2813C51.765 24.3188 50.9437 24.555 50.085 24.81C38.1712 28.2488 27.7612 32.8163 18.7762 38.52C9.18748 44.6138 3.65998 51.9188 2.05873 60.6675L1.94248 61.3125L3.11623 60.1613C3.74248 59.5163 4.87498 58.4625 5.61748 57.8175L5.60998 57.7913ZM93.99 59.4525C94.9462 58.965 96.4312 56.7188 96.9787 54.9413C97.1362 54.315 97.4475 53.73 97.8975 53.2425C99.3412 51.6413 100.534 48.7313 100.552 46.74C100.552 43.635 98.7937 42.4425 96.2362 43.77C95.9025 43.9275 95.6325 44.0438 95.5912 44.0063C95.4562 43.8713 96.1762 43.1663 97.0575 42.6188C98.2087 41.8575 98.4262 41.4075 98.4262 39.7875C98.4432 38.4781 98.0541 37.1955 97.3125 36.1163C96.96 35.5875 96.825 35.2388 96.8812 35.0213L97.2337 33.7125C97.7212 31.9725 97.545 29.9813 96.7837 28.7138C95.6512 26.8013 94.2637 25.8638 92.3287 25.7063L91.1962 25.6275L91.86 26.37C93.8325 28.5 94.7887 31.1738 94.3987 33.4613C94.2037 34.635 94.0275 34.8675 92.895 35.3175L92.2312 35.5913L92.31 36.4913C92.445 37.9575 92.1937 39.03 91.2562 41.0025C90.7875 42 90.435 42.8963 90.4762 42.9938C90.5925 43.3275 91.8825 43.95 92.8987 44.205L93.8962 44.4413L93.27 44.655C92.4487 44.91 92.2725 45.2813 92.2725 46.6275C92.2725 47.8575 92.4487 48.3675 93.345 49.7138C93.7537 50.2988 94.0275 50.9063 94.0687 51.255C94.1475 51.8025 94.1287 51.84 93.6787 51.9975C93.1686 52.1407 92.6441 52.2262 92.115 52.2525C90.2775 52.3688 90.1425 52.4288 89.3212 53.2088C88.5787 53.9138 88.56 53.9513 88.56 54.7313C88.56 55.8038 88.9687 57.975 89.2237 58.2675C89.5575 58.62 91.41 59.5388 92.1337 59.6738C92.7579 59.8305 93.4178 59.7545 93.99 59.46V59.4525ZM66.9375 57.99C68.13 57.0525 69.0675 56.115 69.5925 55.3125C69.9262 54.825 69.945 54.7275 69.7875 54.315C69.5137 53.6888 67.7175 52.0688 66.72 51.5813C66.0553 51.2835 65.3522 51.0802 64.6312 50.9775L63.4012 50.82L62.64 49.8638C61.0575 47.91 60.18 46.3875 58.9275 43.4363C57.8325 40.935 56.8762 39.4725 55.3537 38.025C54.7275 37.44 54.2812 36.9525 54.3187 36.9525C54.3975 36.9525 55.14 37.3238 55.9987 37.7738C57.4237 38.535 57.6 38.595 58.245 38.4975C60.57 38.2238 62.6212 35.55 63.3637 31.8C63.5775 30.7463 64.0087 29.67 64.4587 29.025C64.4775 29.0063 65.3775 29.5913 66.4312 30.3525C69.1087 32.2463 69.6937 32.5388 71.2162 32.5988C72.2137 32.6363 72.78 32.5613 74.5762 32.13C78.405 31.1925 82.545 30.8213 85.065 31.155C86.49 31.35 88.5412 31.9763 90.0637 32.6963C91.5675 33.4013 91.86 33.4388 92.3475 33.0075C92.7562 32.655 92.7562 32.5988 92.7562 31.29C92.7375 29.355 92.0325 27.2663 90.96 26.0175C90.4125 25.3725 88.8712 24.3188 87.345 23.5163C86.8024 23.2285 86.2624 22.936 85.725 22.6388C85.0012 22.2075 84.1837 22.2675 81.9562 22.8525C79.3762 23.5163 78.6937 23.5163 75.7462 22.755C73.245 22.1288 73.0912 22.11 70.6275 22.5C69.3187 22.695 66.0375 22.5788 64.9425 22.2863C64.395 22.1288 63.8475 21.975 63.3225 21.78C62.3662 21.4088 60.705 21.3488 59.2012 21.6225C56.2125 22.1513 53.9475 23.7713 53.1262 25.9763C52.695 27.09 52.755 27.6188 53.3212 27.9675C54.2212 28.5338 55.41 30.0788 55.41 30.6825C55.41 30.72 55.1175 30.4688 54.7837 30.1163C53.9437 29.2388 53.1825 28.845 52.2825 28.845C51.7002 28.8612 51.134 29.0397 50.6476 29.3603C50.1613 29.681 49.7742 30.1311 49.53 30.66C49.2672 31.35 49.0455 32.055 48.8662 32.7713C48.3187 34.7625 47.8312 35.82 46.7962 37.2263C45.8775 38.4975 45.7425 39.0638 46.0725 40.4888C46.8937 44.0813 48.3187 45.5288 54.2737 48.9075C57.3975 50.685 58.9987 51.6825 60.1725 52.56C61.0725 53.2238 61.0912 53.265 61.0125 53.7713C60.8362 54.945 61.5787 56.2125 63.045 57.2475C63.4162 57.5025 63.6487 57.7763 63.6487 57.9713C63.6487 58.3238 64.6462 58.8113 65.3662 58.8113C65.775 58.8113 66.09 58.635 66.93 57.99H66.9375ZM91.02 51.405C93.285 51.4838 93.4012 51.3075 92.1937 49.9013C90.9225 48.435 90.5737 47.2463 91.0425 45.9375L91.2375 45.4313L90.435 45.0413C90.1612 44.9063 89.8875 44.7675 89.6137 44.67C89.4787 45.1988 89.34 45.705 89.2237 46.2338C88.9312 47.4263 88.5787 50.5125 88.56 51.8213C88.56 51.9375 88.755 51.9 89.0887 51.6863C89.5575 51.4125 89.7937 51.375 91.0237 51.4125L91.02 51.405ZM83.4225 51.2888C84.7912 51.21 86.1975 51.1125 86.5687 51.0525L87.2512 50.955L87.33 48.7088C87.4462 45.5063 87.915 43.6125 89.3025 40.5825C90.2775 38.4338 90.7087 36.5588 90.495 35.1525C90.4162 34.5488 90.3787 34.5075 89.5575 34.155C88.0537 33.5579 86.4876 33.1315 84.8887 32.8838C83.3475 32.67 78.8137 32.7863 77.115 33.12C76.41 33.2363 75.1237 33.51 74.265 33.7238C72.135 34.2113 71.0025 34.155 69.3825 33.45C67.7812 32.745 66.765 32.1038 65.8087 31.2038C65.0475 30.4988 64.9687 30.4613 64.7737 30.6975C64.6162 30.8738 64.5375 31.4025 64.4812 32.535C64.4212 34.275 64.1475 35.19 63.3862 36.42C63.2171 36.6731 63.0727 36.9418 62.955 37.2225C62.955 37.2825 63.54 37.965 64.2637 38.7075C66.765 41.3063 67.995 41.97 69.9675 41.8313C70.6125 41.7713 71.0625 41.7938 71.0625 41.8688C71.0625 42.0263 69.7912 43.02 69.2662 43.2938C69.0112 43.4288 68.955 43.5675 68.9925 43.86L69.3037 45.9113C69.48 47.085 69.615 47.6288 69.7912 47.7863C70.26 48.1763 72.6825 49.4288 74.205 50.0513C76.1962 50.8538 77.2912 51.1463 78.8137 51.2813C80.6887 51.4388 80.7262 51.4388 83.4225 51.2813V51.2888ZM67.2712 49.14C67.3087 49.08 67.1737 47.9475 66.9187 46.6388C66.6075 44.8613 66.4312 44.2163 66.2362 44.04C66.1012 43.9238 65.3775 43.4138 64.6537 42.8888C63.7028 42.205 62.8018 41.4543 61.9575 40.6425L60.6112 39.315L59.8875 39.6863L59.1262 40.095C59.1903 40.4001 59.295 40.6952 59.4375 40.9725C59.6512 41.4413 60.0825 42.5925 60.3937 43.53C61.215 45.9713 61.86 47.145 63.48 49.2713L64.0837 50.0738L65.235 50.25C65.88 50.3475 66.525 50.4863 66.7012 50.5425C66.975 50.6588 67.0125 50.6025 67.0912 49.9763C67.1287 49.7025 67.1887 49.41 67.2675 49.1363L67.2712 49.14ZM92.0175 24.8438C93.015 24.7463 93.1912 24.6075 92.76 24.1613C92.4862 23.8875 91.86 23.8688 91.3537 24.1013C91.02 24.2588 90.945 24.2175 90.4162 23.6513C89.8687 23.0475 89.8312 23.025 89.145 23.1038C88.5187 23.1825 88.4212 23.1638 88.3425 22.9088C88.0986 22.4899 87.7955 22.1084 87.4425 21.7763C86.9989 21.2722 86.4443 20.8781 85.8225 20.625C84.6112 20.1563 83.9287 20.2163 82.7737 20.8613C79.4325 22.6763 79.5712 22.6575 76.3462 21.8363C73.3387 21.075 71.0925 20.295 70.3687 19.8038C69.765 19.395 68.475 18.945 67.3987 18.8063C66.5962 18.69 66.09 18.8663 65.3287 19.4888L64.92 19.8225L65.2912 20.4675C65.7975 21.3675 65.7412 21.4238 64.98 20.76C64.1587 20.0775 63.1837 19.6088 62.5575 19.5863C62.1075 19.5863 60.78 20.1713 60.6225 20.4263C60.5625 20.505 60.975 20.6025 61.5225 20.64C62.0887 20.7 62.8687 20.895 63.3975 21.1088C64.7662 21.6938 65.4675 21.8888 66.7162 22.0088C68.085 22.1438 70.5637 21.99 70.8562 21.7538C71.0137 21.6188 71.4412 21.5963 72.3412 21.675C73.5337 21.7538 74.0212 21.87 76.8525 22.6313C78.495 23.0813 79.6462 23.04 81.6 22.515C82.5 22.26 83.6325 22.0088 84.1012 21.9488C84.9037 21.87 85.0575 21.9113 86.31 22.4775C88.3012 23.3775 89.3587 23.9438 89.9437 24.4688C90.5287 24.975 90.6075 24.975 92.0137 24.8588L92.0175 24.8438ZM80.8837 21.4275L82.0762 20.8013L82.0387 19.59C82.02 18.75 81.9787 17.9288 81.9412 17.1113L81.8437 15.8625L80.6512 16.7813C79.9462 17.3288 79.2637 17.7375 78.9712 17.7975C78.1125 17.955 73.875 17.7975 73.4812 17.5838C72.9567 17.1963 72.4661 16.7647 72.015 16.2938L70.92 15.18L70.9012 15.8438C70.9012 16.1963 70.8637 16.8 70.785 17.1713C70.6875 17.8763 70.6875 17.895 71.4487 18.8513C71.8575 19.38 72.1912 19.8488 72.1912 19.905C72.1912 20.2763 77.835 22.035 79.1062 22.0538C79.515 22.0538 80.025 21.8775 80.8837 21.4275ZM78.6187 16.9913C80.025 16.7175 80.7075 15.7013 81.2362 13.125C81.7837 10.35 82.0575 5.99625 81.8025 4.14C81.5662 2.46 79.6912 1.7175 76.1175 1.83375C73.89 1.9125 72.9712 2.12625 72.21 2.77125C71.7412 3.16125 71.7412 3.2025 71.5275 5.055C71.1375 8.61 71.7225 13.6688 72.7387 15.5625C73.2262 16.4813 73.6575 16.8113 74.5537 16.9688C75.57 17.145 77.7375 17.145 78.615 16.9875L78.6187 16.9913Z" fill="black"/>

    <g id="iconHtml">
        <path d="M9.1323 95.0038L0.706055 0.5H93.2935L84.856 94.9888L46.9436 105.5L9.1323 95.0038Z" fill="#E44F26"/>
        <path d="M47 97.4675L77.6375 88.9738L84.845 8.22876H47V97.4675Z" fill="#F1662A"/>
        <path d="M47 43.2762H31.6625L30.605 31.4075H47V19.8162H17.9375L18.215 22.9287L21.0613 54.8675H47V43.2762ZM47 73.3775L46.9475 73.3925L34.04 69.9087L33.215 60.665H21.5787L23.2025 78.86L46.9475 85.4525L47 85.4375V73.3775Z" fill="#EBEBEB"/>
        <path d="M46.959 43.2762V54.8675H61.2315L59.889 69.9012L46.959 73.3887V85.4487L70.7227 78.86L70.8952 76.9025L73.6177 46.3887L73.9027 43.2762H46.959ZM46.959 19.8162V31.4075H74.9565L75.189 28.805L75.7177 22.9287L75.9952 19.8162H46.959Z" fill="white"/>
    </g>

    <g id="iconJS">
        <path d="M0.5 0.5H105.5V105.5H0.5V0.5Z" fill="#F5DE19"/>
        <path d="M71.0338 82.5312C71.9284 84.3485 73.3183 85.8759 75.0434 86.9375C76.7684 87.9991 78.7584 88.5515 80.7838 88.5313C84.8713 88.5313 87.485 86.4875 87.485 83.6562C87.485 80.2812 84.8 79.0738 80.3 77.105L77.8325 76.0475C70.7075 73.0138 65.9825 69.215 65.9825 61.1825C65.9825 53.7838 71.6075 48.1475 80.4313 48.1475C83.2877 47.9412 86.1416 48.5805 88.637 49.9856C91.1324 51.3907 93.159 53.4994 94.4638 56.0488L86.75 60.98C86.2476 59.716 85.3728 58.6345 84.2416 57.879C83.1105 57.1236 81.7764 56.7298 80.4163 56.75C79.8229 56.6906 79.2236 56.7555 78.6567 56.9404C78.0897 57.1254 77.5675 57.4265 77.1234 57.8244C76.6792 58.2224 76.3228 58.7085 76.0769 59.2518C75.831 59.7951 75.7009 60.3837 75.695 60.98C75.695 63.9388 77.5288 65.1388 81.7625 66.98L84.23 68.0375C92.615 71.6338 97.355 75.2975 97.355 83.5363C97.355 92.42 90.3763 97.2875 81.005 97.2875C77.3537 97.5201 73.713 96.6912 70.5223 94.9005C67.3317 93.1099 64.7274 90.4342 63.0238 87.1963L71.0338 82.5312ZM36.1775 83.3863C37.7263 86.135 39.1363 88.46 42.5263 88.46C45.7663 88.46 47.8138 87.1925 47.8138 82.2612V48.71H57.68V82.3925C57.68 92.6075 51.68 97.2575 42.9463 97.2575C39.8591 97.4263 36.7931 96.6569 34.1513 95.0506C31.5096 93.4442 29.4157 91.0761 28.145 88.2575L36.1775 83.3863Z" fill="black"/>
    </g>

    <g id="iconReact">
        <g clip-path="url(#clip0_2_5870)">
            <path d="M86.3282 30.3875C85.2108 30.0028 84.084 29.6464 82.9488 29.3186C83.1395 28.5365 83.315 27.7639 83.4708 27.0048C86.0292 14.5406 84.3567 4.49907 78.6441 1.19293C73.1669 -1.97655 64.2094 1.32835 55.163 9.23024C54.2714 10.0104 53.3996 10.813 52.5484 11.6374C51.9786 11.0892 51.3988 10.5517 50.8091 10.0251C41.3279 1.57615 31.8246 -1.98479 26.1181 1.33082C20.6458 4.51018 19.0255 13.9499 21.3287 25.7626C21.5578 26.9325 21.8166 28.0964 22.1047 29.2531C20.7595 29.6368 19.4614 30.0451 18.2192 30.4797C7.1032 34.3696 0.00439453 40.4653 0.00439453 46.7882C0.00439453 53.3185 7.62529 59.8687 19.203 63.8404C20.1417 64.1611 21.0881 64.4582 22.0415 64.7315C21.7319 65.9774 21.457 67.2317 21.2171 68.4929C19.0214 80.1006 20.7361 89.3173 26.1936 92.4764C31.8303 95.7389 41.291 92.3859 50.5027 84.3037C51.2497 83.6466 51.9802 82.971 52.6936 82.2773C53.6154 83.1699 54.5618 84.0366 55.5317 84.8763C64.4551 92.5826 73.2678 95.6945 78.72 92.5267C84.3514 89.2547 86.1817 79.3536 83.8055 67.3075C83.6183 66.3637 83.4084 65.4247 83.176 64.4912C83.8404 64.2936 84.4925 64.0902 85.1281 63.8787C97.1644 59.8765 104.996 53.4058 104.996 46.7882C104.996 40.4422 97.6676 34.3054 86.3282 30.3875V30.3875ZM83.7177 59.606C83.1436 59.7966 82.5546 59.9806 81.9542 60.1597C80.6254 55.9377 78.8324 51.4485 76.6378 46.81C78.7319 42.2822 80.456 37.8502 81.7475 33.6558C82.8216 33.9678 83.8637 34.2967 84.8685 34.6437C94.5843 38.0009 100.511 42.9638 100.511 46.7882C100.511 50.8616 94.1102 56.1497 83.7177 59.606V59.606ZM79.4057 68.1818C80.4564 73.5081 80.6061 78.3241 79.9102 82.0892C79.2851 85.4723 78.0277 87.7276 76.4725 88.6311C73.1641 90.5534 66.0882 88.0548 58.4571 81.4639C57.5549 80.6832 56.6746 79.8775 55.8171 79.0477C58.7757 75.8004 61.7323 72.0255 64.6179 67.8327C69.6936 67.3807 74.4888 66.6415 78.8373 65.6326C79.0468 66.4777 79.2363 67.3277 79.4057 68.1818V68.1818ZM35.7982 88.2989C32.5656 89.4444 29.9909 89.4774 28.4345 88.5767C25.1227 86.6598 23.746 79.2593 25.6239 69.3326C25.8471 68.1596 26.1028 66.9931 26.3904 65.8343C30.691 66.7892 35.4513 67.4758 40.5388 67.8899C43.4441 71.9925 46.486 75.7634 49.5517 79.0654C48.9002 79.6981 48.2333 80.3147 47.5515 80.9144C43.4778 84.4881 39.3958 87.0237 35.7982 88.2989V88.2989ZM20.6541 59.5809C15.5345 57.8245 11.3065 55.5421 8.40862 53.0514C5.80434 50.8134 4.4899 48.5911 4.4899 46.7882C4.4899 42.951 10.1894 38.0569 19.6956 34.7306C20.8493 34.3272 22.0567 33.9464 23.3096 33.5891C24.6236 37.8782 26.347 42.3628 28.4267 46.8977C26.3199 51.4996 24.5719 56.0558 23.2452 60.3955C22.375 60.1453 21.511 59.8737 20.6541 59.5809V59.5809ZM25.7305 24.8978C23.7574 14.7772 25.0678 7.14291 28.3656 5.22681C31.8779 3.186 39.6448 6.09574 47.8312 13.3913C48.365 13.8681 48.8902 14.3546 49.4065 14.8505C46.356 18.1381 43.342 21.881 40.4625 25.9593C35.5247 26.4187 30.798 27.1563 26.4524 28.1446C26.1846 27.0687 25.9439 25.9862 25.7305 24.8982V24.8978ZM71.0191 36.1218C69.9927 34.3424 68.9282 32.5853 67.8263 30.8519C71.1762 31.2771 74.3858 31.8414 77.3998 32.5313C76.4951 35.4423 75.3672 38.4854 74.0397 41.6055C73.0693 39.7576 72.0622 37.9293 71.0191 36.1218V36.1218ZM52.5505 18.0677C54.6191 20.3172 56.6911 22.8285 58.729 25.5535C54.595 25.3575 50.454 25.3567 46.3199 25.551C48.3599 22.8512 50.4494 20.3432 52.5505 18.0677ZM33.9633 36.1527C32.9333 37.9457 31.945 39.7625 30.9994 41.6017C29.6936 38.4928 28.576 35.4357 27.6635 32.4835C30.659 31.8109 33.8534 31.261 37.182 30.8436C36.0678 32.5877 34.9947 34.3577 33.9633 36.1523V36.1527ZM37.2775 63.053C33.8387 62.6677 30.5962 62.1462 27.6015 61.4917C28.5284 58.4869 29.6706 55.3647 31.0047 52.189C31.9541 54.0297 32.9464 55.8476 33.981 57.6414C35.0448 59.4854 36.1464 61.2916 37.2775 63.053ZM52.6743 75.8256C50.5483 73.5238 48.4279 70.9771 46.3572 68.2381C48.3677 68.3172 50.417 68.3575 52.5 68.3575C54.6401 68.3575 56.7555 68.3094 58.8377 68.2163C56.7932 71.0046 54.7291 73.5551 52.6743 75.8256ZM74.0819 52.0269C75.4853 55.2375 76.6681 58.3432 77.6073 61.2966C74.5634 61.9939 71.2767 62.5553 67.8136 62.9723C68.9233 61.2066 69.9979 59.419 71.0368 57.6105C72.093 55.7722 73.1083 53.9105 74.0819 52.0269V52.0269ZM67.1517 55.3614C65.5613 58.1342 63.8815 60.8544 62.115 63.5177C58.915 63.7451 55.708 63.8581 52.5 63.8564C49.2326 63.8564 46.0546 63.7544 42.9942 63.5551C41.1816 60.898 39.4697 58.1731 37.8624 55.3861H37.8628C36.263 52.6139 34.7686 49.7817 33.383 46.8956C34.7651 44.0089 36.2549 41.1753 37.8492 38.401L37.8488 38.4014C39.4426 35.6263 41.1407 32.913 42.9397 30.2674C46.0619 30.0303 49.2638 29.9068 52.4996 29.9068H52.5C55.7507 29.9068 58.9566 30.0315 62.078 30.2702C63.8588 32.912 65.5462 35.6159 67.1369 38.3771C68.7365 41.1453 70.2461 43.9651 71.663 46.8318C70.2606 49.7279 68.7559 52.5729 67.1517 55.3614V55.3614ZM76.404 5.09262C79.9196 7.12768 81.2869 15.3342 79.078 26.096C78.9369 26.7826 78.7786 27.4819 78.6064 28.1911C74.2501 27.1818 69.5201 26.4315 64.5679 25.9651C61.6831 21.8419 58.6937 18.0933 55.6928 14.848C56.4793 14.0872 57.2845 13.346 58.1076 12.6253C65.859 5.85536 73.1034 3.18229 76.404 5.09262V5.09262ZM52.5 37.3785C57.6778 37.3785 61.8754 41.5915 61.8754 46.7882C61.8754 51.9849 57.6778 56.1978 52.5 56.1978C47.3223 56.1978 43.1247 51.9849 43.1247 46.7882C43.1247 41.5915 47.3223 37.3785 52.5 37.3785V37.3785Z" fill="#00D8FF"/>
        </g>
        <defs>
            <clipPath id="clip0_2_5870">
                <rect width="105" height="93.8496" fill="white"/>
            </clipPath>
        </defs>
    </g>

    <path id="iconRedux" d="M72.6971 69.5627C76.5689 69.1619 79.5062 65.8242 79.3725 61.8184C79.2393 57.8131 75.9012 54.6086 71.8959 54.6086H71.6291C67.4898 54.7422 64.2857 58.2135 64.4193 62.3525C64.5529 64.3553 65.3537 66.091 66.5553 67.2926C62.016 76.2385 55.0734 82.7807 44.6594 88.2549C37.5832 91.9934 30.2402 93.3287 22.8971 92.3943C16.8889 91.593 12.216 88.9229 9.27827 84.5164C5.00614 77.9742 4.60573 70.8975 8.21065 63.8213C10.7475 58.7475 14.7525 55.009 17.2893 53.1398C16.7553 51.4041 15.9541 48.4668 15.5537 46.3307C-3.80574 60.35 -1.80287 79.3094 4.07172 88.2549C8.47745 94.9311 17.4229 99.0701 27.3029 99.0701C29.9729 99.0701 32.643 98.8029 35.3135 98.1357C52.4033 94.7975 65.3541 84.65 72.6971 69.5627ZM96.1955 53.0066C86.0484 41.1234 71.0951 34.5811 54.0053 34.5811H51.8693C50.6676 32.1779 48.1307 30.5754 45.327 30.5754H45.0598C40.9213 30.709 37.7172 34.1803 37.8504 38.3197C37.984 42.325 41.3217 45.5295 45.327 45.5295H45.5939C48.5311 45.3959 51.068 43.5266 52.1361 40.9898H54.5393C64.6865 40.9898 74.2992 43.927 82.9779 49.6684C89.6533 54.0746 94.4598 59.816 97.1299 66.7586C99.3996 72.3664 99.266 77.8406 96.8627 82.5139C93.1246 89.5902 86.8496 93.4623 78.5717 93.4623C73.2311 93.4623 68.1578 91.8598 65.4873 90.6582C64.0189 91.9934 61.3484 94.1295 59.4791 95.4652C65.2205 98.1352 71.0951 99.6041 76.7025 99.6041C89.5197 99.6041 98.9992 92.5275 102.604 85.4512C106.476 77.707 106.209 64.3553 96.1955 53.0066ZM28.3709 71.832C28.5045 75.8377 31.8422 79.0418 35.8475 79.0418H36.1148C40.2537 78.9086 43.4578 75.4369 43.3242 71.2979C43.191 67.2922 39.8529 64.0881 35.8475 64.0881H35.5807C35.3135 64.0881 34.9127 64.0881 34.6463 64.2213C29.1721 55.1422 26.9025 45.2623 27.7037 34.5807C28.2373 26.5697 30.9078 19.6266 35.5807 13.8852C39.4525 8.94508 46.9291 6.5418 52.0029 6.40861C66.1549 6.14139 72.1627 23.7656 72.5635 30.8422C74.2992 31.2426 77.2365 32.1775 79.2393 32.8451C77.6369 11.2156 64.2857 0 51.4689 0C39.4525 0 28.3709 8.67869 23.9648 21.4963C17.8234 38.5865 21.8287 55.009 29.3053 67.9602C28.6381 68.8947 28.2373 70.3631 28.3709 71.832Z" fill="#764ABC"/>

    <path id="iconSass" d="M100.673 50.0766C96.603 50.0975 93.0653 51.0694 90.1035 52.5063C89.0162 50.3721 87.9295 48.4708 87.738 47.076C87.5246 45.4493 87.2691 44.4561 87.5246 42.5122C87.7805 40.5683 88.9312 37.8001 88.9098 37.589C88.8887 37.3778 88.6538 36.3846 86.3098 36.3637C83.9658 36.3424 81.9413 36.8073 81.7068 37.42C81.4724 38.0326 81.025 39.4273 80.7266 40.8637C80.3216 42.9771 76.0386 50.5198 73.5881 54.471C72.7993 52.9291 72.1174 51.5765 71.968 50.499C71.755 48.8722 71.4991 47.879 71.755 45.9351C72.0109 43.9912 73.1617 41.2235 73.1402 41.0119C73.1187 40.8007 72.8843 39.8075 70.5403 39.7866C68.1958 39.7653 66.1713 40.2302 65.9373 40.8429C65.7029 41.4559 65.4469 42.8923 64.957 44.2871C64.4667 45.6818 58.7769 58.275 57.2852 61.5285C56.6824 62.8453 56.0501 64.1487 55.3886 65.4376C55.3886 65.4376 55.3672 65.501 55.3032 65.6066C55.0954 66.0107 54.8824 66.4122 54.6643 66.811V66.8318C54.3444 67.4028 54.0035 67.9307 53.833 67.9307C53.705 67.9307 53.4706 66.4095 53.8755 64.3387C54.7278 59.9652 56.7524 53.1615 56.7313 52.9291C56.7313 52.8022 57.1148 51.6191 55.4101 51.006C53.7475 50.3934 53.1511 51.4075 53.0017 51.4075C52.8527 51.4075 52.7458 51.7668 52.7458 51.7668C52.7458 51.7668 54.6003 44.118 49.2085 44.118C45.8417 44.118 41.1958 47.7734 38.8943 51.0694C36.278 52.4811 33.6639 53.8968 31.052 55.3166C29.7953 56.0139 28.4951 56.7113 27.2803 57.3661C27.1949 57.2818 27.1099 57.1758 27.0244 57.0915C20.5034 50.1822 8.442 45.3012 8.95339 36.0257C9.14534 32.6449 10.3171 23.7705 32.1178 12.9947C50.0608 4.22583 64.3392 6.65549 66.8111 12.0436C70.3484 19.7349 59.1608 34.0183 40.6204 36.0887C33.5455 36.8708 29.8373 34.1661 28.9 33.152C27.9197 32.0953 27.7703 32.0318 27.4079 32.2435C26.8115 32.5606 27.1949 33.5113 27.4079 34.0605C27.9622 35.4969 30.2422 38.0326 34.0994 39.2796C37.5091 40.378 45.7988 40.991 55.8361 37.1454C67.0666 32.8348 75.8466 20.8546 73.2682 10.8183C70.6893 0.633908 53.641 -2.72556 37.5091 2.95799C27.9197 6.33921 17.52 11.6634 10.0402 18.594C1.15363 26.834 -0.253039 33.997 0.322334 36.9976C2.38984 47.6465 17.2006 54.5771 23.1248 59.7114C22.8263 59.8804 22.5489 60.0286 22.3149 60.1555C19.3526 61.6132 8.05811 67.4658 5.24523 73.6568C2.04891 80.6716 5.75708 85.7009 8.20756 86.3765C15.8154 88.4686 23.6362 84.7076 27.8342 78.4953C32.0323 72.2834 31.5209 64.2119 29.5818 60.5144C29.5604 60.4722 29.5393 60.4296 29.4964 60.3875C30.2637 59.9439 31.052 59.479 31.8194 59.0354C33.2296 58.2088 34.6578 57.4126 36.1029 56.6474C35.3781 58.6126 34.8452 60.958 34.5897 64.3387C34.2698 68.3113 35.9105 73.4665 38.063 75.4947C39.0223 76.3828 40.1515 76.4037 40.8763 76.4037C43.3908 76.4037 44.5205 74.3329 45.7778 71.8819C47.3119 68.8818 48.6971 65.3954 48.6971 65.3954C48.6971 65.3954 46.971 74.8191 51.6595 74.8191C53.3641 74.8191 55.0902 72.6214 55.8575 71.5017V71.5226C55.8575 71.5226 55.9 71.4592 55.9855 71.3114C56.156 71.0368 56.2624 70.8674 56.2624 70.8674V70.8257C56.9443 69.6421 58.4789 66.9587 60.7589 62.5004C63.6998 56.7534 66.5342 49.5696 66.5342 49.5696C66.5342 49.5696 66.7901 51.3232 67.6634 54.239C68.1753 55.9505 69.2401 57.831 70.0929 59.648C69.411 60.5991 68.9846 61.127 68.9846 61.127L69.0061 61.1483C68.4518 61.8665 67.8554 62.6481 67.1945 63.4094C64.8716 66.1558 62.1016 69.3045 61.7178 70.2126C61.2699 71.2901 61.3768 72.0722 62.2296 72.7062C62.8475 73.1711 63.9553 73.234 65.085 73.1711C67.1735 73.0229 68.6437 72.5158 69.3681 72.1991C70.4978 71.7976 71.819 71.1846 73.0548 70.276C75.3352 68.6067 76.72 66.2192 76.5925 63.0714C76.5285 61.3386 75.9531 59.6059 75.2498 57.9787C75.4632 57.6833 75.6547 57.3874 75.8681 57.0915C79.4693 51.8724 82.2612 46.1462 82.2612 46.1462C82.2612 46.1462 82.5171 47.8998 83.3905 50.8161C83.8168 52.2951 84.6907 53.901 85.4575 55.4643C82.0693 58.1903 79.9807 61.3594 79.2349 63.4302C77.8926 67.2759 78.9365 69.0082 80.9185 69.4097C81.8133 69.6 83.092 69.1772 84.0298 68.7757C85.2231 68.3956 86.6297 67.7408 87.9724 66.7684C90.2529 65.0995 92.4474 62.775 92.3195 59.6272C92.2555 58.1903 91.8721 56.7743 91.3392 55.4009C94.2161 54.2182 97.9242 53.563 102.655 54.1122C112.799 55.2953 114.802 61.5706 114.418 64.2123C114.035 66.8531 111.904 68.29 111.201 68.7336C110.497 69.1777 110.263 69.3254 110.327 69.6421C110.412 70.107 110.753 70.0862 111.35 70.0014C112.181 69.8537 116.678 67.8672 116.869 63.0075C117.189 56.7956 111.222 50.0132 100.673 50.0766ZM22.4214 76.2346C19.0542 79.8687 14.3662 81.2421 12.3417 80.0803C10.1681 78.8333 11.0204 73.4665 15.1545 69.6213C17.669 67.2759 20.9083 65.0991 23.0608 63.7683C23.5507 63.4724 24.2755 63.0501 25.1493 62.5217C25.2983 62.437 25.3838 62.3948 25.3838 62.3948L25.8952 62.0776C27.4078 67.5713 25.9591 72.4103 22.4214 76.2346ZM46.9285 59.7114C45.7563 62.543 43.3058 69.7903 41.8141 69.3888C40.5354 69.0508 39.7466 63.5571 41.5582 58.1269C42.4745 55.4009 44.4136 52.147 45.5433 50.8796C47.3759 48.8509 49.4005 48.1744 49.8904 48.9991C50.5087 50.0766 47.6529 57.9365 46.9285 59.7114ZM67.152 69.3041C66.6617 69.5578 66.1932 69.7269 65.9798 69.6C65.8308 69.5153 66.1932 69.1772 66.1932 69.1772C66.1932 69.1772 68.7292 66.473 69.7305 65.2473C70.3063 64.5291 70.9877 63.684 71.7125 62.7329V63.0075C71.7125 66.2405 68.5583 68.4169 67.1516 69.3041H67.152ZM82.7511 65.7756C82.3887 65.5219 82.4527 64.6768 83.6674 62.0355C84.1363 61.0001 85.2441 59.2678 87.1411 57.5985C87.3541 58.2746 87.5035 58.9298 87.4821 59.5424C87.4606 63.6205 84.5202 65.1417 82.7511 65.7756Z" fill="#CD6799"/>

    <path id="iconTailwind" d="M28.8438 23.0844C32.6646 7.80103 42.2167 0.159363 57.5 0.159363C80.425 0.159363 83.2906 17.3531 94.7531 20.2187C102.395 22.1292 109.081 19.2635 114.812 11.6219C110.992 26.9052 101.44 34.5469 86.1562 34.5469C63.2313 34.5469 60.3656 17.3531 48.9031 14.4875C41.2615 12.5771 34.575 15.4427 28.8438 23.0844ZM0.1875 57.4719C4.00833 42.1885 13.5604 34.5469 28.8438 34.5469C51.7687 34.5469 54.6344 51.7406 66.0969 54.6062C73.7385 56.5167 80.425 53.651 86.1562 46.0094C82.3354 61.2927 72.7833 68.9344 57.5 68.9344C34.575 68.9344 31.7094 51.7406 20.2469 48.875C12.6052 46.9646 5.91875 49.8302 0.1875 57.4719Z" fill="#44A8B3"/>

    <g id="iconVs">
        <path d="M94.5351 10.605L74.3541 0.888988C73.2144 0.339481 71.932 0.158144 70.6847 0.370113C69.4373 0.582082 68.2868 1.17686 67.3926 2.07199L1.3301 62.3C0.528569 63.0273 0.0487755 64.0432 -0.00373441 65.1243C-0.0562443 66.2053 0.32283 67.2629 1.0501 68.0645C1.1376 68.159 1.2251 68.25 1.3196 68.334L6.7131 73.234C7.41787 73.8754 8.32505 74.2497 9.27708 74.2919C10.2291 74.3341 11.1658 74.0416 11.9246 73.465L91.4971 13.125C92.0981 12.6689 92.8145 12.3897 93.5657 12.3186C94.3168 12.2476 95.0729 12.3877 95.7487 12.7231C96.4246 13.0585 96.9934 13.5758 97.3911 14.217C97.7889 14.8581 97.9998 15.5975 98.0001 16.352V16.1175C98 14.9656 97.6748 13.8372 97.0618 12.862C96.4488 11.8868 95.573 11.1045 94.5351 10.605Z" fill="#0065A9"/>
        <path d="M94.5351 87.395L74.3541 97.1145C73.2141 97.6625 71.9321 97.843 70.6851 97.6311C69.4381 97.4191 68.2876 96.8253 67.3926 95.9315L1.3301 35.7C0.528569 34.9727 0.0487755 33.9568 -0.00373441 32.8758C-0.0562443 31.7947 0.32283 30.7371 1.0501 29.9355C1.1376 29.841 1.2251 29.75 1.3196 29.666L6.7131 24.766C7.41859 24.1219 8.32784 23.7459 9.28222 23.7037C10.2366 23.6615 11.1755 23.9557 11.9351 24.535L91.4971 84.875C92.0981 85.3311 92.8145 85.6104 93.5657 85.6814C94.3168 85.7524 95.0729 85.6123 95.7487 85.2769C96.4246 84.9415 96.9934 84.4242 97.3911 83.783C97.7889 83.1419 97.9998 82.4025 98.0001 81.648V81.9C97.9963 83.0488 97.6694 84.1733 97.0566 85.1451C96.4439 86.1168 95.5701 86.8965 94.5351 87.395Z" fill="#007ACC"/>
        <path d="M74.3539 97.1145C73.2139 97.6624 71.9319 97.8429 70.6849 97.631C69.4379 97.4191 68.2874 96.8252 67.3924 95.9315C67.895 96.4275 68.5329 96.7642 69.226 96.8993C69.9192 97.0345 70.6368 96.962 71.2889 96.6911C71.941 96.4201 72.4987 95.9627 72.892 95.3762C73.2853 94.7897 73.4968 94.1002 73.4999 93.394V4.60597C73.5005 3.89648 73.2905 3.20278 72.8965 2.61274C72.5025 2.02271 71.9423 1.56288 71.2867 1.29152C70.6312 1.02016 69.9098 0.949465 69.2141 1.0884C68.5183 1.22734 67.8795 1.56965 67.3784 2.07197C68.2728 1.17717 69.423 0.582355 70.6702 0.369797C71.9173 0.157239 73.1997 0.337438 74.3399 0.885474L94.5174 10.5875C95.5586 11.0845 96.438 11.8657 97.0542 12.8411C97.6704 13.8165 97.9983 14.9463 97.9999 16.1V81.9C98.0002 83.0528 97.6748 84.1822 97.0611 85.1581C96.4474 86.134 95.5705 86.9167 94.5314 87.416L74.3539 97.1145Z" fill="#1F9CF0"/>
    </g>

    <g id="iconW3c">
        <path d="M9.13246 94.1537L0.709961 0.4375H93.29L84.8562 94.1388L46.9437 104.562L9.13246 94.1537Z" fill="#1572B6"/>
        <path d="M47 96.597L77.6375 88.174L84.845 8.10187H47V96.597Z" fill="#33A9DC"/>
        <path d="M47 42.054H62.3375L63.395 30.2842H47V18.7896H76.0625L75.785 21.8724L72.9387 53.5487H47V42.054Z" fill="white"/>
        <path d="M47.0711 71.9045L47.0186 71.9193L34.1112 68.4609L33.2862 59.2942H21.6499L23.2737 77.3413L47.0149 83.8788L47.0711 83.864V71.9045Z" fill="#EBEBEB"/>
        <path d="M61.3513 53.0615L59.9563 68.4534L47.03 71.9119V83.8714L70.79 77.3412L70.9663 75.4001L72.98 53.0615H61.3513Z" fill="white"/>
        <path d="M47.0411 18.7896V30.2842H19.0436L18.8111 27.6997L18.2824 21.8724L18.0049 18.7896H47.0411ZM46.9999 42.054V53.5487H34.2536L34.0211 50.9642L33.4961 45.1369L33.2186 42.054H46.9999Z" fill="#EBEBEB"/>
    </g>
    
</svg>
