<svg width="94" height="106" viewBox="0 0 94 106" fill="none" xmlns="http://www.w3.org/2000/svg">
<path d="M9.1323 95.0038L0.706055 0.5H93.2935L84.856 94.9888L46.9436 105.5L9.1323 95.0038Z" fill="#E44F26"/>
<path d="M47 97.4675L77.6375 88.9738L84.845 8.22876H47V97.4675Z" fill="#F1662A"/>
<path d="M47 43.2762H31.6625L30.605 31.4075H47V19.8162H17.9375L18.215 22.9287L21.0613 54.8675H47V43.2762ZM47 73.3775L46.9475 73.3925L34.04 69.9087L33.215 60.665H21.5787L23.2025 78.86L46.9475 85.4525L47 85.4375V73.3775Z" fill="#EBEBEB"/>
<path d="M46.959 43.2762V54.8675H61.2315L59.889 69.9012L46.959 73.3887V85.4487L70.7227 78.86L70.8952 76.9025L73.6177 46.3887L73.9027 43.2762H46.959ZM46.959 19.8162V31.4075H74.9565L75.189 28.805L75.7177 22.9287L75.9952 19.8162H46.959Z" fill="white"/>
</svg>
